<svg xmlns="http://www.w3.org/2000/svg" xmlns:xlink="http://www.w3.org/1999/xlink" width="500" zoomAndPan="magnify" viewBox="0 0 375 374.999991" height="500" preserveAspectRatio="xMidYMid meet" version="1.0"><defs><clipPath id="daea5acfd6"><path d="M 145.414062 168.699219 L 229.710938 168.699219 L 229.710938 242.640625 L 145.414062 242.640625 Z M 145.414062 168.699219 " clip-rule="nonzero"/></clipPath><clipPath id="4bdf1337f7"><path d="M 148.75 180.75 C 141.925781 191.992188 146.734375 202.9375 152.777344 208.746094 L 188.105469 242.640625 L 222.6875 208.867188 C 228.308594 202.617188 230.464844 195.988281 229.265625 188.609375 C 227.613281 178.398438 219.199219 170.480469 208.808594 169.347656 C 202.433594 168.664062 196.277344 170.464844 191.472656 174.460938 C 190.179688 175.535156 189.023438 176.734375 188.015625 178.039062 C 186.820312 176.554688 185.417969 175.195312 183.832031 173.988281 C 178.304688 169.789062 171.269531 168.121094 164.515625 169.417969 C 158.113281 170.65625 152.371094 174.78125 148.75 180.75 Z M 148.75 180.75 " clip-rule="nonzero"/></clipPath></defs><path stroke-linecap="butt" transform="matrix(1.875, 0, 0, 1.875, 0.0000045, 0)" fill-opacity="1" fill="#000000" fill-rule="nonzero" stroke-linejoin="miter" d="M 196.825011 94.25834 C 193.866677 43.362503 151.643758 3 100.000004 3 C 48.443751 3 6.279165 43.21667 3.193748 93.99584 C 3.058331 95.98334 2.999998 97.981256 2.999998 100.000007 C 2.999998 102.018757 3.058331 104.016673 3.193748 106.004174 C 6.220831 155.735427 46.718751 195.341679 96.827087 196.94168 C 97.875004 196.981263 98.943754 197.000013 100.000004 197.000013 C 101.056254 197.000013 102.125004 196.981263 103.172921 196.94168 C 153.368758 195.331263 193.92501 155.591677 196.825011 105.743757 C 196.941677 103.841673 197.000011 101.929173 197.000011 100.000007 C 197.000011 98.07084 196.941677 96.15834 196.825011 94.25834 Z M 30.091666 90.300006 C 24.029166 90.300006 19.431249 84.818756 20.479166 78.843755 C 26.560416 44.108336 59.852085 17.550001 100.000004 17.550001 C 140.147923 17.550001 173.439592 44.108336 179.520843 78.843755 C 180.568759 84.818756 175.970842 90.300006 169.908342 90.300006 L 167.706259 90.300006 L 117.779172 83.510422 C 113.356255 78.737505 107.022921 75.750005 100.000004 75.750005 C 93.12292 75.750005 86.914587 78.612505 82.51042 83.208339 L 30.354166 90.300006 Z M 90.533337 168.016678 C 90.533337 174.029178 85.12917 178.627095 79.193753 177.647928 C 48.929167 172.681261 25.049999 148.13126 20.333332 117.081258 C 19.849999 113.870841 20.974999 110.825007 23.049999 108.710424 L 82.51042 116.789591 C 83.63542 117.972924 84.89792 119.050008 86.264587 119.981258 L 90.533337 151.060427 Z M 179.666676 117.081258 C 174.952092 148.13126 151.070841 172.681261 120.806256 177.650012 C 114.870838 178.629178 109.466671 174.031261 109.466671 168.016678 L 109.466671 151.060427 L 113.735422 119.981258 L 117.779172 116.489591 L 176.697926 108.47709 C 178.939593 110.583341 180.170843 113.745841 179.666676 117.081258 Z M 179.666676 117.081258 " stroke="#ffffff" stroke-width="6" stroke-opacity="1" stroke-miterlimit="10"/><g clip-path="url(#daea5acfd6)"><g clip-path="url(#4bdf1337f7)"><path fill="#222222" d="M 145.414062 168.988281 L 229.710938 168.988281 L 229.710938 242.640625 L 145.414062 242.640625 Z M 145.414062 168.988281 " fill-opacity="1" fill-rule="nonzero"/></g></g></svg>